<mxfile host="app.diagrams.net" modified="2021-08-08T03:51:02.389Z" agent="5.0 (Windows NT 10.0; Win64; x64) AppleWebKit/537.36 (KHTML, like Gecko) Chrome/92.0.4515.131 Safari/537.36" etag="Hw7cfzjjUPLZKzGMkj3B" version="14.9.4" type="github">
  <diagram name="Page-1" id="e7e014a7-5840-1c2e-5031-d8a46d1fe8dd">
    <mxGraphModel dx="1175" dy="560" grid="1" gridSize="10" guides="1" tooltips="1" connect="1" arrows="1" fold="1" page="1" pageScale="1" pageWidth="1169" pageHeight="826" background="none" math="0" shadow="0">
      <root>
        <mxCell id="0" />
        <mxCell id="1" parent="0" />
        <mxCell id="47I_X4jDvRGqug19y4q9-138" value="R" style="rounded=0;whiteSpace=wrap;html=1;strokeColor=#000000;" vertex="1" parent="1">
          <mxGeometry x="10" y="68" width="1720" height="1482" as="geometry" />
        </mxCell>
        <mxCell id="2" value="User" style="swimlane;whiteSpace=wrap" parent="1" vertex="1">
          <mxGeometry x="60" y="128" width="530" height="1282" as="geometry" />
        </mxCell>
        <mxCell id="5" value="" style="ellipse;shape=startState;fillColor=#000000;strokeColor=#ff0000;" parent="2" vertex="1">
          <mxGeometry x="100" y="40" width="30" height="30" as="geometry" />
        </mxCell>
        <mxCell id="6" value="" style="edgeStyle=elbowEdgeStyle;elbow=horizontal;verticalAlign=bottom;endArrow=open;endSize=8;endFill=1;rounded=0" parent="2" source="5" target="7" edge="1">
          <mxGeometry x="100" y="40" as="geometry">
            <mxPoint x="115" y="110" as="targetPoint" />
          </mxGeometry>
        </mxCell>
        <mxCell id="47I_X4jDvRGqug19y4q9-42" value="" style="edgeStyle=orthogonalEdgeStyle;rounded=0;orthogonalLoop=1;jettySize=auto;html=1;" edge="1" parent="2" source="7" target="47I_X4jDvRGqug19y4q9-41">
          <mxGeometry relative="1" as="geometry" />
        </mxCell>
        <mxCell id="7" value="Login" style="" parent="2" vertex="1">
          <mxGeometry x="60" y="110" width="110" height="50" as="geometry" />
        </mxCell>
        <mxCell id="12" value="" style="edgeStyle=elbowEdgeStyle;elbow=horizontal;endArrow=open;endFill=1;rounded=0" parent="2" target="7" edge="1">
          <mxGeometry width="100" height="100" relative="1" as="geometry">
            <mxPoint x="50" y="252" as="sourcePoint" />
            <mxPoint x="260" y="190" as="targetPoint" />
            <Array as="points">
              <mxPoint x="30" y="250" />
            </Array>
          </mxGeometry>
        </mxCell>
        <mxCell id="47I_X4jDvRGqug19y4q9-116" value="No" style="edgeLabel;html=1;align=center;verticalAlign=middle;resizable=0;points=[];" vertex="1" connectable="0" parent="12">
          <mxGeometry x="0.1533" relative="1" as="geometry">
            <mxPoint as="offset" />
          </mxGeometry>
        </mxCell>
        <mxCell id="47I_X4jDvRGqug19y4q9-44" value="Yes" style="edgeStyle=orthogonalEdgeStyle;rounded=0;orthogonalLoop=1;jettySize=auto;html=1;" edge="1" parent="2" source="47I_X4jDvRGqug19y4q9-41" target="47I_X4jDvRGqug19y4q9-43">
          <mxGeometry relative="1" as="geometry" />
        </mxCell>
        <mxCell id="47I_X4jDvRGqug19y4q9-41" value="isCredentialValid" style="rhombus;whiteSpace=wrap;html=1;" vertex="1" parent="2">
          <mxGeometry x="52.5" y="212" width="125" height="80" as="geometry" />
        </mxCell>
        <mxCell id="47I_X4jDvRGqug19y4q9-48" value="No" style="edgeStyle=orthogonalEdgeStyle;rounded=0;orthogonalLoop=1;jettySize=auto;html=1;entryX=0.5;entryY=0;entryDx=0;entryDy=0;" edge="1" parent="2" source="47I_X4jDvRGqug19y4q9-43" target="47I_X4jDvRGqug19y4q9-124">
          <mxGeometry x="1" y="40" relative="1" as="geometry">
            <mxPoint x="283" y="372" as="targetPoint" />
            <mxPoint x="-40" y="39" as="offset" />
          </mxGeometry>
        </mxCell>
        <mxCell id="47I_X4jDvRGqug19y4q9-43" value="IsAdmin" style="rhombus;whiteSpace=wrap;html=1;" vertex="1" parent="2">
          <mxGeometry x="235" y="212" width="95" height="78" as="geometry" />
        </mxCell>
        <mxCell id="47I_X4jDvRGqug19y4q9-124" value="IsCustomer" style="rhombus;whiteSpace=wrap;html=1;" vertex="1" parent="2">
          <mxGeometry x="235" y="377" width="95" height="78" as="geometry" />
        </mxCell>
        <mxCell id="47I_X4jDvRGqug19y4q9-134" value="Logout" style="rounded=0;whiteSpace=wrap;html=1;strokeColor=#000000;" vertex="1" parent="2">
          <mxGeometry x="160" y="1182" width="170" height="60" as="geometry" />
        </mxCell>
        <mxCell id="47I_X4jDvRGqug19y4q9-70" value="Admin" style="swimlane;whiteSpace=wrap" vertex="1" parent="1">
          <mxGeometry x="590" y="128" width="530" height="1282" as="geometry" />
        </mxCell>
        <mxCell id="47I_X4jDvRGqug19y4q9-118" value="" style="edgeStyle=orthogonalEdgeStyle;rounded=0;orthogonalLoop=1;jettySize=auto;html=1;strokeColor=#000000;" edge="1" parent="47I_X4jDvRGqug19y4q9-70" source="47I_X4jDvRGqug19y4q9-83" target="47I_X4jDvRGqug19y4q9-117">
          <mxGeometry relative="1" as="geometry" />
        </mxCell>
        <mxCell id="47I_X4jDvRGqug19y4q9-83" value="Add Restaurant" style="whiteSpace=wrap;html=1;" vertex="1" parent="47I_X4jDvRGqug19y4q9-70">
          <mxGeometry x="190" y="221" width="120" height="60" as="geometry" />
        </mxCell>
        <mxCell id="47I_X4jDvRGqug19y4q9-120" value="" style="edgeStyle=orthogonalEdgeStyle;rounded=0;orthogonalLoop=1;jettySize=auto;html=1;strokeColor=#000000;" edge="1" parent="47I_X4jDvRGqug19y4q9-70" source="47I_X4jDvRGqug19y4q9-117" target="47I_X4jDvRGqug19y4q9-119">
          <mxGeometry relative="1" as="geometry" />
        </mxCell>
        <mxCell id="47I_X4jDvRGqug19y4q9-117" value="Add Restaurant Details - Location , Time , Name&amp;nbsp;" style="whiteSpace=wrap;html=1;" vertex="1" parent="47I_X4jDvRGqug19y4q9-70">
          <mxGeometry x="190" y="312" width="120" height="60" as="geometry" />
        </mxCell>
        <mxCell id="47I_X4jDvRGqug19y4q9-119" value="Add Restaurant Menu and prices&lt;br&gt;" style="whiteSpace=wrap;html=1;" vertex="1" parent="47I_X4jDvRGqug19y4q9-70">
          <mxGeometry x="190" y="402" width="120" height="60" as="geometry" />
        </mxCell>
        <mxCell id="47I_X4jDvRGqug19y4q9-93" value="Customer" style="swimlane;whiteSpace=wrap" vertex="1" parent="1">
          <mxGeometry x="1120" y="128" width="530" height="1292" as="geometry" />
        </mxCell>
        <mxCell id="47I_X4jDvRGqug19y4q9-104" value="" style="edgeStyle=orthogonalEdgeStyle;rounded=0;orthogonalLoop=1;jettySize=auto;html=1;" edge="1" parent="47I_X4jDvRGqug19y4q9-93" source="47I_X4jDvRGqug19y4q9-105" target="47I_X4jDvRGqug19y4q9-109">
          <mxGeometry relative="1" as="geometry" />
        </mxCell>
        <mxCell id="47I_X4jDvRGqug19y4q9-105" value="Search a Restaurant" style="whiteSpace=wrap;html=1;" vertex="1" parent="47I_X4jDvRGqug19y4q9-93">
          <mxGeometry x="80" y="492" width="120" height="60" as="geometry" />
        </mxCell>
        <mxCell id="47I_X4jDvRGqug19y4q9-109" value="Restaurant Found" style="rhombus;whiteSpace=wrap;html=1;" vertex="1" parent="47I_X4jDvRGqug19y4q9-93">
          <mxGeometry x="100" y="592" width="80" height="80" as="geometry" />
        </mxCell>
        <mxCell id="47I_X4jDvRGqug19y4q9-110" value="No" style="endArrow=classic;html=1;entryX=0;entryY=0.75;entryDx=0;entryDy=0;exitX=0;exitY=0.5;exitDx=0;exitDy=0;" edge="1" parent="47I_X4jDvRGqug19y4q9-93" source="47I_X4jDvRGqug19y4q9-109" target="47I_X4jDvRGqug19y4q9-105">
          <mxGeometry width="50" height="50" relative="1" as="geometry">
            <mxPoint x="150" y="552" as="sourcePoint" />
            <mxPoint x="955" y="192" as="targetPoint" />
            <Array as="points">
              <mxPoint x="10" y="632" />
              <mxPoint x="10" y="537" />
            </Array>
          </mxGeometry>
        </mxCell>
        <mxCell id="47I_X4jDvRGqug19y4q9-65" value="View Restaurant Location" style="whiteSpace=wrap;html=1;strokeColor=#000000;" vertex="1" parent="47I_X4jDvRGqug19y4q9-93">
          <mxGeometry x="50" y="772" width="120" height="60" as="geometry" />
        </mxCell>
        <mxCell id="47I_X4jDvRGqug19y4q9-66" value="View Restaurant Timings / Status" style="whiteSpace=wrap;html=1;strokeColor=#000000;" vertex="1" parent="47I_X4jDvRGqug19y4q9-93">
          <mxGeometry x="210" y="772" width="120" height="60" as="geometry" />
        </mxCell>
        <mxCell id="47I_X4jDvRGqug19y4q9-67" value="View Restaurant Menu" style="whiteSpace=wrap;html=1;strokeColor=#000000;" vertex="1" parent="47I_X4jDvRGqug19y4q9-93">
          <mxGeometry x="370" y="772" width="120" height="60" as="geometry" />
        </mxCell>
        <mxCell id="47I_X4jDvRGqug19y4q9-68" value="Add / Remove items to the Cart" style="whiteSpace=wrap;html=1;" vertex="1" parent="47I_X4jDvRGqug19y4q9-93">
          <mxGeometry x="370" y="852" width="120" height="60" as="geometry" />
        </mxCell>
        <mxCell id="47I_X4jDvRGqug19y4q9-69" value="" style="edgeStyle=orthogonalEdgeStyle;rounded=0;orthogonalLoop=1;jettySize=auto;html=1;strokeColor=#000000;" edge="1" parent="47I_X4jDvRGqug19y4q9-93" source="47I_X4jDvRGqug19y4q9-67" target="47I_X4jDvRGqug19y4q9-68">
          <mxGeometry relative="1" as="geometry" />
        </mxCell>
        <mxCell id="47I_X4jDvRGqug19y4q9-58" value="" style="shape=line;html=1;strokeWidth=6;" vertex="1" parent="47I_X4jDvRGqug19y4q9-93">
          <mxGeometry x="40" y="712" width="200" height="10" as="geometry" />
        </mxCell>
        <mxCell id="47I_X4jDvRGqug19y4q9-59" value="" style="edgeStyle=orthogonalEdgeStyle;html=1;verticalAlign=bottom;endArrow=open;endSize=8;entryX=0.5;entryY=0;entryDx=0;entryDy=0;" edge="1" source="47I_X4jDvRGqug19y4q9-58" parent="47I_X4jDvRGqug19y4q9-93" target="47I_X4jDvRGqug19y4q9-66">
          <mxGeometry relative="1" as="geometry">
            <mxPoint x="170" y="752" as="targetPoint" />
          </mxGeometry>
        </mxCell>
        <mxCell id="47I_X4jDvRGqug19y4q9-62" value="" style="edgeStyle=orthogonalEdgeStyle;html=1;verticalAlign=bottom;endArrow=open;endSize=8;exitX=0.475;exitY=0.531;exitDx=0;exitDy=0;exitPerimeter=0;entryX=0.5;entryY=0;entryDx=0;entryDy=0;" edge="1" parent="47I_X4jDvRGqug19y4q9-93" target="47I_X4jDvRGqug19y4q9-67">
          <mxGeometry relative="1" as="geometry">
            <mxPoint x="430" y="757" as="targetPoint" />
            <mxPoint x="140" y="722.31" as="sourcePoint" />
            <Array as="points">
              <mxPoint x="140" y="737" />
              <mxPoint x="430" y="737" />
            </Array>
          </mxGeometry>
        </mxCell>
        <mxCell id="47I_X4jDvRGqug19y4q9-60" value="" style="edgeStyle=orthogonalEdgeStyle;html=1;verticalAlign=bottom;endArrow=open;endSize=8;entryX=0.5;entryY=0;entryDx=0;entryDy=0;" edge="1" parent="47I_X4jDvRGqug19y4q9-93" source="47I_X4jDvRGqug19y4q9-58" target="47I_X4jDvRGqug19y4q9-65">
          <mxGeometry relative="1" as="geometry">
            <mxPoint x="60" y="752" as="targetPoint" />
            <mxPoint x="210" y="728" as="sourcePoint" />
          </mxGeometry>
        </mxCell>
        <mxCell id="47I_X4jDvRGqug19y4q9-147" value="Yes" style="edgeStyle=orthogonalEdgeStyle;rounded=0;orthogonalLoop=1;jettySize=auto;html=1;exitX=0.5;exitY=1;exitDx=0;exitDy=0;entryX=0.499;entryY=0.709;entryDx=0;entryDy=0;entryPerimeter=0;" edge="1" parent="47I_X4jDvRGqug19y4q9-93" source="47I_X4jDvRGqug19y4q9-109" target="47I_X4jDvRGqug19y4q9-58">
          <mxGeometry relative="1" as="geometry">
            <mxPoint x="330" y="572" as="sourcePoint" />
            <mxPoint x="330" y="632" as="targetPoint" />
          </mxGeometry>
        </mxCell>
        <mxCell id="47I_X4jDvRGqug19y4q9-121" value="Yes" style="endArrow=classic;html=1;strokeColor=#000000;exitX=1;exitY=0.5;exitDx=0;exitDy=0;entryX=0;entryY=0.5;entryDx=0;entryDy=0;" edge="1" parent="1" source="47I_X4jDvRGqug19y4q9-43" target="47I_X4jDvRGqug19y4q9-83">
          <mxGeometry width="50" height="50" relative="1" as="geometry">
            <mxPoint x="460" y="430" as="sourcePoint" />
            <mxPoint x="510" y="380" as="targetPoint" />
            <Array as="points" />
          </mxGeometry>
        </mxCell>
        <mxCell id="47I_X4jDvRGqug19y4q9-127" value="" style="endArrow=classic;html=1;strokeColor=#000000;exitX=0.5;exitY=1;exitDx=0;exitDy=0;entryX=0;entryY=0.25;entryDx=0;entryDy=0;" edge="1" parent="1" source="47I_X4jDvRGqug19y4q9-124" target="47I_X4jDvRGqug19y4q9-105">
          <mxGeometry width="50" height="50" relative="1" as="geometry">
            <mxPoint x="820" y="620" as="sourcePoint" />
            <mxPoint x="1160" y="620" as="targetPoint" />
            <Array as="points">
              <mxPoint x="340" y="640" />
            </Array>
          </mxGeometry>
        </mxCell>
        <mxCell id="47I_X4jDvRGqug19y4q9-146" value="Yes" style="edgeLabel;html=1;align=center;verticalAlign=middle;resizable=0;points=[];" vertex="1" connectable="0" parent="47I_X4jDvRGqug19y4q9-127">
          <mxGeometry x="-0.4889" y="2" relative="1" as="geometry">
            <mxPoint as="offset" />
          </mxGeometry>
        </mxCell>
        <mxCell id="47I_X4jDvRGqug19y4q9-131" style="edgeStyle=orthogonalEdgeStyle;rounded=0;orthogonalLoop=1;jettySize=auto;html=1;exitX=0.5;exitY=1;exitDx=0;exitDy=0;strokeColor=#000000;entryX=0.25;entryY=0;entryDx=0;entryDy=0;" edge="1" parent="1" source="47I_X4jDvRGqug19y4q9-119" target="47I_X4jDvRGqug19y4q9-134">
          <mxGeometry relative="1" as="geometry">
            <mxPoint x="266.20000000000005" y="1233.02" as="targetPoint" />
          </mxGeometry>
        </mxCell>
        <mxCell id="47I_X4jDvRGqug19y4q9-133" value="" style="endArrow=classic;html=1;strokeColor=#000000;exitX=0.636;exitY=1.026;exitDx=0;exitDy=0;exitPerimeter=0;entryX=0.75;entryY=0;entryDx=0;entryDy=0;" edge="1" parent="1" source="47I_X4jDvRGqug19y4q9-142" target="47I_X4jDvRGqug19y4q9-134">
          <mxGeometry width="50" height="50" relative="1" as="geometry">
            <mxPoint x="1520" y="1160" as="sourcePoint" />
            <mxPoint x="382" y="1311" as="targetPoint" />
            <Array as="points">
              <mxPoint x="1576" y="1190" />
              <mxPoint x="348" y="1190" />
            </Array>
          </mxGeometry>
        </mxCell>
        <mxCell id="47I_X4jDvRGqug19y4q9-139" value="&lt;font style=&quot;font-size: 26px&quot; color=&quot;#ff3333&quot;&gt;&lt;b&gt;&lt;u&gt;Restaurant Finder&lt;/u&gt;&lt;/b&gt;&lt;/font&gt;" style="text;html=1;align=center;verticalAlign=middle;resizable=0;points=[];autosize=1;strokeColor=none;" vertex="1" parent="1">
          <mxGeometry x="735" y="90" width="240" height="20" as="geometry" />
        </mxCell>
        <mxCell id="47I_X4jDvRGqug19y4q9-142" value="View total Cost of the items in the cart" style="whiteSpace=wrap;html=1;" vertex="1" parent="1">
          <mxGeometry x="1500" y="1100" width="120" height="60" as="geometry" />
        </mxCell>
        <mxCell id="47I_X4jDvRGqug19y4q9-145" value="" style="edgeStyle=orthogonalEdgeStyle;rounded=0;orthogonalLoop=1;jettySize=auto;html=1;strokeColor=#000000;entryX=0.412;entryY=0;entryDx=0;entryDy=0;entryPerimeter=0;" edge="1" parent="1" target="47I_X4jDvRGqug19y4q9-142">
          <mxGeometry relative="1" as="geometry">
            <mxPoint x="1550" y="1040" as="sourcePoint" />
            <mxPoint x="1550" y="1090" as="targetPoint" />
          </mxGeometry>
        </mxCell>
      </root>
    </mxGraphModel>
  </diagram>
</mxfile>
